M48
; DRILL file {KiCad 9.0.5} date 2025-11-24T22:09:02+0000
; FORMAT={-:-/ absolute / metric / decimal}
; #@! TF.CreationDate,2025-11-24T22:09:02+00:00
; #@! TF.GenerationSoftware,Kicad,Pcbnew,9.0.5
; #@! TF.FileFunction,MixedPlating,1,2
FMAT,2
METRIC
; #@! TA.AperFunction,Plated,PTH,ViaDrill
T1C0.300
; #@! TA.AperFunction,Plated,PTH,ComponentDrill
T2C0.600
; #@! TA.AperFunction,Plated,PTH,ComponentDrill
T3C0.800
; #@! TA.AperFunction,Plated,PTH,ComponentDrill
T4C0.813
; #@! TA.AperFunction,Plated,PTH,ComponentDrill
T5C0.850
; #@! TA.AperFunction,Plated,PTH,ComponentDrill
T6C0.900
; #@! TA.AperFunction,Plated,PTH,ComponentDrill
T7C1.000
; #@! TA.AperFunction,Plated,PTH,ComponentDrill
T8C1.500
%
G90
G05
T1
X51.468Y-114.935
X51.468Y-135.763
X51.722Y-63.881
X52.451Y-142.621
X52.611Y-90.805
X52.705Y-137.414
X53.119Y-94.615
X53.246Y-71.501
X53.5Y-117.475
X55.532Y-79.375
X55.532Y-98.171
X55.654Y-99.783
X55.913Y-107.315
X56.421Y-114.808
X56.548Y-81.915
X56.548Y-100.965
X57.056Y-132.334
X57.183Y-121.031
X57.183Y-127.0
X57.31Y-104.775
X57.564Y-110.617
X57.658Y-136.652
X57.818Y-84.455
X57.818Y-102.235
X58.58Y-66.167
X58.834Y-86.995
X59.088Y-102.235
X59.85Y-90.551
X61.12Y-94.361
X62.611Y-137.795
X62.738Y-140.843
X62.865Y-145.161
X63.152Y-106.045
X63.279Y-109.855
X63.533Y-126.365
X63.66Y-131.699
X63.914Y-118.618
X63.976Y-103.505
X64.676Y-104.775
X65.404Y-60.833
X65.629Y-70.168
X68.232Y-102.235
X68.28Y-79.375
X68.707Y-143.383
X68.74Y-120.269
X68.994Y-81.915
X69.248Y-118.491
X69.756Y-84.455
X69.883Y-103.251
X70.104Y-127.127
X70.104Y-130.937
X70.485Y-118.745
X70.518Y-86.995
X71.026Y-99.695
X72.042Y-94.361
X73.024Y-65.151
X74.93Y-147.193
X75.184Y-128.651
X76.614Y-98.425
X76.962Y-109.855
X77.089Y-114.935
X77.122Y-96.901
X77.122Y-104.775
X77.724Y-126.365
X78.9Y-94.361
X79.916Y-61.087
X80.518Y-123.063
X80.899Y-115.062
X81.28Y-102.108
X81.788Y-137.922
X81.915Y-107.696
X82.296Y-131.318
X82.55Y-126.365
X82.583Y-97.282
X82.804Y-120.015
X83.058Y-104.902
X83.693Y-122.301
X84.455Y-134.366
X86.233Y-138.811
X86.741Y-147.828
X87.536Y-94.361
X88.011Y-129.794
X88.182Y-64.897
X88.265Y-95.377
X88.773Y-127.635
X88.9Y-122.936
X89.281Y-131.191
X90.856Y-114.732
X90.932Y-132.969
X91.186Y-94.742
X91.186Y-122.936
X91.313Y-126.492
X91.567Y-120.015
X91.694Y-124.714
X93.345Y-107.696
X93.378Y-71.501
X93.472Y-91.948
X93.472Y-127.0
X93.726Y-75.311
X93.726Y-114.046
X94.107Y-95.377
X94.361Y-107.569
X94.488Y-103.505
X94.488Y-114.808
X95.102Y-65.659
X95.25Y-81.915
X95.25Y-84.455
X95.25Y-86.995
X95.25Y-89.535
X95.377Y-79.375
X95.631Y-112.776
X96.139Y-99.949
X96.266Y-113.665
X96.393Y-125.222
X96.393Y-129.54
X96.52Y-120.015
X96.647Y-92.075
X96.901Y-75.311
X96.901Y-109.474
X96.934Y-104.775
X99.695Y-132.207
X99.822Y-134.62
X101.76Y-107.315
X101.981Y-122.936
X102.362Y-119.888
X102.87Y-110.617
X103.23Y-65.151
X103.538Y-77.597
X103.759Y-88.265
X104.013Y-100.711
X104.267Y-92.837
X105.156Y-108.712
X105.537Y-146.558
X105.918Y-134.62
X106.045Y-124.714
X106.299Y-83.566
X106.68Y-141.732
X108.712Y-136.144
X109.093Y-86.868
X109.093Y-88.646
X109.093Y-90.424
X110.617Y-120.015
X112.014Y-131.699
X112.395Y-124.714
X112.649Y-141.605
X113.157Y-119.888
X113.538Y-65.151
X113.665Y-148.717
X114.554Y-113.284
X115.316Y-77.343
X115.316Y-122.936
X115.697Y-84.582
X115.697Y-86.106
X115.697Y-87.757
X115.697Y-89.535
X116.84Y-82.55
X117.094Y-74.168
X117.094Y-100.203
X117.221Y-130.683
X117.475Y-93.091
X117.475Y-105.283
X117.602Y-71.882
X117.856Y-111.887
X117.983Y-117.164
X118.11Y-121.285
X118.364Y-137.922
X119.38Y-117.856
X120.396Y-111.887
X120.523Y-118.491
X120.65Y-105.156
X121.412Y-141.097
X121.793Y-107.95
X121.793Y-121.793
X122.047Y-118.237
X122.174Y-103.251
X122.296Y-114.549
X122.428Y-65.278
X122.428Y-130.683
X122.555Y-76.581
X122.682Y-78.867
X122.936Y-109.22
X123.444Y-101.981
X123.825Y-113.411
X123.952Y-78.232
X124.841Y-100.838
X125.222Y-77.47
X126.111Y-130.683
X126.238Y-99.568
X126.365Y-110.998
X126.619Y-76.581
X127.063Y-109.41
X127.254Y-74.295
X127.381Y-98.298
X127.381Y-112.522
X128.016Y-109.093
X128.143Y-92.71
X128.143Y-101.6
X128.143Y-104.14
X128.27Y-83.566
X128.27Y-108.077
X128.397Y-96.647
X128.397Y-114.046
X128.524Y-117.348
X128.651Y-107.188
X130.937Y-138.811
X131.064Y-69.977
X131.191Y-62.865
X131.318Y-147.066
X131.445Y-120.904
X131.953Y-78.105
X132.461Y-98.679
X132.461Y-111.125
X133.35Y-91.567
X133.477Y-81.661
X134.874Y-98.679
X134.874Y-111.125
X134.874Y-120.904
X136.144Y-68.072
X136.271Y-74.93
X136.525Y-71.501
X137.033Y-129.667
X137.668Y-138.811
X138.43Y-111.252
X138.684Y-98.806
X138.684Y-120.904
X138.938Y-63.627
X139.192Y-91.948
X139.7Y-71.501
X140.208Y-87.376
X140.335Y-78.105
X140.335Y-82.296
X140.97Y-73.152
X141.224Y-98.933
X141.224Y-111.252
X141.224Y-120.904
X142.621Y-75.311
X142.621Y-132.969
X143.002Y-71.247
X144.018Y-90.297
X144.145Y-86.106
X144.145Y-103.124
X144.399Y-111.76
X144.907Y-63.881
X145.415Y-79.375
X145.669Y-73.914
X146.431Y-147.066
X147.066Y-71.374
X147.447Y-124.333
X148.463Y-110.871
X148.844Y-69.342
T3
X53.5Y-61.595
X53.5Y-69.215
X53.5Y-74.295
X53.5Y-76.835
X53.5Y-79.375
X53.5Y-81.915
X53.5Y-84.455
X53.5Y-86.995
X53.5Y-89.535
X53.5Y-92.075
X53.5Y-97.155
X53.5Y-99.695
X53.5Y-102.235
X53.5Y-104.775
X53.5Y-107.315
X53.5Y-109.855
X53.5Y-112.395
X53.5Y-114.935
X53.5Y-120.015
X53.5Y-122.555
X53.5Y-125.095
X53.5Y-127.635
X53.5Y-130.175
X53.5Y-132.715
X53.5Y-135.255
X56.5Y-61.595
X56.5Y-69.215
X59.5Y-61.595
X59.5Y-69.215
X61.12Y-74.295
X61.12Y-76.835
X61.12Y-79.375
X61.12Y-81.915
X61.12Y-84.455
X61.12Y-86.995
X61.12Y-89.535
X61.12Y-92.075
X61.12Y-97.155
X61.12Y-99.695
X61.12Y-102.235
X61.12Y-104.775
X61.12Y-107.315
X61.12Y-109.855
X61.12Y-112.395
X61.12Y-114.935
X61.12Y-120.015
X61.12Y-122.555
X61.12Y-125.095
X61.12Y-127.635
X61.12Y-130.175
X61.12Y-132.715
X61.12Y-135.255
X62.5Y-61.595
X62.5Y-69.215
X64.897Y-141.193
X64.897Y-144.193
X64.897Y-147.193
X66.2Y-74.295
X66.2Y-76.835
X66.2Y-79.375
X66.2Y-81.915
X66.2Y-84.455
X66.2Y-86.995
X66.2Y-89.535
X66.2Y-92.075
X66.2Y-97.155
X66.2Y-99.695
X66.2Y-102.235
X66.2Y-104.775
X66.2Y-107.315
X66.2Y-109.855
X66.2Y-112.395
X66.2Y-114.935
X66.2Y-120.015
X66.2Y-122.555
X66.2Y-125.095
X66.2Y-127.635
X66.2Y-130.175
X66.2Y-132.715
X66.2Y-135.255
X68.5Y-61.595
X68.5Y-69.215
X71.5Y-61.595
X71.5Y-69.215
X72.517Y-141.193
X72.517Y-144.193
X72.517Y-147.193
X73.82Y-74.295
X73.82Y-76.835
X73.82Y-79.375
X73.82Y-81.915
X73.82Y-84.455
X73.82Y-86.995
X73.82Y-89.535
X73.82Y-92.075
X73.82Y-97.155
X73.82Y-99.695
X73.82Y-102.235
X73.82Y-104.775
X73.82Y-107.315
X73.82Y-109.855
X73.82Y-112.395
X73.82Y-114.935
X73.82Y-120.015
X73.82Y-122.555
X73.82Y-125.095
X73.82Y-127.635
X73.82Y-130.175
X73.82Y-132.715
X73.82Y-135.255
X74.5Y-61.595
X74.5Y-69.215
X77.5Y-61.595
X77.5Y-69.215
X78.9Y-74.295
X78.9Y-76.835
X78.9Y-79.375
X78.9Y-81.915
X78.9Y-84.455
X78.9Y-86.995
X78.9Y-89.535
X78.9Y-92.075
X78.9Y-97.155
X78.9Y-99.695
X78.9Y-102.235
X78.9Y-104.775
X78.9Y-107.315
X78.9Y-109.855
X78.9Y-112.395
X78.9Y-114.935
X78.9Y-120.015
X78.9Y-122.555
X78.9Y-125.095
X78.9Y-127.635
X78.9Y-130.175
X78.9Y-132.715
X78.9Y-135.255
X83.5Y-61.595
X83.5Y-69.215
X86.5Y-61.595
X86.5Y-69.215
X86.52Y-74.295
X86.52Y-76.835
X86.52Y-79.375
X86.52Y-81.915
X86.52Y-84.455
X86.52Y-86.995
X86.52Y-89.535
X86.52Y-92.075
X86.52Y-97.155
X86.52Y-99.695
X86.52Y-102.235
X86.52Y-104.775
X86.52Y-107.315
X86.52Y-109.855
X86.52Y-112.395
X86.52Y-114.935
X86.52Y-120.015
X86.52Y-122.555
X86.52Y-125.095
X86.52Y-127.635
X86.52Y-130.175
X86.52Y-132.715
X86.52Y-135.255
X89.5Y-61.595
X89.5Y-69.215
X91.5Y-135.0
X91.5Y-137.5
X91.6Y-74.295
X91.6Y-76.835
X91.6Y-79.375
X91.6Y-81.915
X91.6Y-84.455
X91.6Y-86.995
X91.6Y-89.535
X91.6Y-92.075
X91.6Y-97.155
X91.6Y-99.695
X91.6Y-102.235
X91.6Y-104.775
X91.6Y-107.315
X91.6Y-109.855
X91.6Y-112.395
X92.5Y-61.595
X92.5Y-69.215
X95.5Y-61.595
X95.5Y-69.215
X97.5Y-135.0
X97.5Y-137.5
X98.5Y-61.595
X98.5Y-69.215
X99.22Y-74.295
X99.22Y-76.835
X99.22Y-79.375
X99.22Y-81.915
X99.22Y-84.455
X99.22Y-86.995
X99.22Y-89.535
X99.22Y-92.075
X99.22Y-97.155
X99.22Y-99.695
X99.22Y-102.235
X99.22Y-104.775
X99.22Y-107.315
X99.22Y-109.855
X99.22Y-112.395
X101.5Y-61.595
X101.5Y-69.215
X102.235Y-124.714
X102.235Y-128.016
X102.235Y-131.318
X102.235Y-134.62
X102.235Y-137.922
X102.235Y-141.272
X102.235Y-144.272
X102.235Y-147.272
X104.3Y-74.295
X104.3Y-81.915
X104.5Y-61.595
X104.5Y-69.215
X106.84Y-74.295
X106.84Y-81.915
X107.5Y-61.595
X107.5Y-69.215
X109.38Y-74.295
X109.38Y-81.915
X109.855Y-124.714
X109.855Y-128.016
X109.855Y-131.318
X109.855Y-134.62
X109.855Y-137.922
X109.855Y-141.272
X109.855Y-144.272
X109.855Y-147.272
X110.5Y-61.595
X110.5Y-69.215
X111.92Y-74.295
X111.92Y-81.915
X113.5Y-61.595
X113.5Y-69.215
X115.697Y-125.349
X115.697Y-127.849
X116.5Y-61.595
X116.5Y-69.215
X117.888Y-145.542
X117.92Y-135.636
X119.5Y-61.595
X119.5Y-69.215
X119.888Y-145.542
X119.92Y-135.636
X121.888Y-145.542
X121.92Y-135.636
X122.5Y-61.595
X122.5Y-69.215
X125.5Y-61.595
X125.5Y-69.215
X128.5Y-61.595
X128.5Y-69.215
X134.5Y-61.595
X134.5Y-69.215
X137.5Y-61.595
X137.5Y-69.215
X140.5Y-61.595
X140.5Y-69.215
X143.5Y-61.595
X143.5Y-69.215
X146.5Y-61.595
X146.5Y-69.215
T4
X77.724Y-141.605
X77.724Y-146.685
X85.344Y-141.605
X85.344Y-146.685
X90.043Y-141.605
X90.043Y-146.685
X97.663Y-141.605
X97.663Y-146.685
T5
X53.604Y-145.796
X58.604Y-145.796
T6
X53.5Y-52.88
X53.5Y-55.42
X56.5Y-52.88
X56.5Y-55.42
X59.5Y-52.88
X59.5Y-55.42
X62.5Y-52.88
X62.5Y-55.42
X68.5Y-52.88
X68.5Y-55.42
X71.5Y-52.88
X71.5Y-55.42
X74.5Y-52.88
X74.5Y-55.42
X77.5Y-52.88
X77.5Y-55.42
X83.5Y-52.88
X83.5Y-55.42
X86.5Y-52.88
X86.5Y-55.42
X89.5Y-52.88
X89.5Y-55.42
X92.5Y-52.88
X92.5Y-55.42
X107.5Y-52.705
X107.5Y-55.245
X110.5Y-52.705
X110.5Y-55.245
X113.5Y-52.705
X113.5Y-55.245
X116.5Y-52.705
X116.5Y-55.245
X119.5Y-52.705
X119.5Y-55.245
X122.5Y-52.705
X122.5Y-55.245
X125.5Y-52.705
X125.5Y-55.245
X128.5Y-52.705
X128.5Y-55.245
X134.5Y-52.705
X134.5Y-55.245
X137.5Y-52.705
X137.5Y-55.245
X140.5Y-52.705
X140.5Y-55.245
X143.5Y-52.705
X143.5Y-55.245
X146.5Y-52.705
X146.5Y-55.245
T7
X54.869Y-139.827
X57.409Y-139.827
X130.693Y-82.55
X130.693Y-85.09
X130.693Y-87.63
X130.693Y-90.17
X130.693Y-92.71
X130.693Y-95.25
X130.693Y-97.79
X130.693Y-100.33
X130.693Y-102.87
X130.693Y-105.41
X130.693Y-107.95
X130.693Y-110.49
X130.693Y-113.03
X130.693Y-115.57
X130.693Y-118.11
X130.693Y-128.0
X130.693Y-130.54
X130.693Y-133.08
X130.693Y-135.62
X145.933Y-82.55
X145.933Y-85.09
X145.933Y-87.63
X145.933Y-90.17
X145.933Y-92.71
X145.933Y-95.25
X145.933Y-97.79
X145.933Y-100.33
X145.933Y-102.87
X145.933Y-105.41
X145.933Y-107.95
X145.933Y-110.49
X145.933Y-113.03
X145.933Y-115.57
X145.933Y-118.11
X145.933Y-128.0
X145.933Y-130.54
X145.933Y-133.08
X145.933Y-138.16
X145.933Y-140.7
T8
X115.788Y-145.542
X115.82Y-135.636
X123.988Y-145.542
X124.02Y-135.636
T2
G00X52.604Y-148.846
M15
G01X52.604Y-148.146
M16
G05
G00X59.604Y-148.146
M15
G01X59.604Y-148.846
M16
G05
M30
