M48
; DRILL file {KiCad 9.0.5} date 2025-10-14T21:49:17+0100
; FORMAT={-:-/ absolute / metric / decimal}
; #@! TF.CreationDate,2025-10-14T21:49:17+01:00
; #@! TF.GenerationSoftware,Kicad,Pcbnew,9.0.5
; #@! TF.FileFunction,MixedPlating,1,2
FMAT,2
METRIC
; #@! TA.AperFunction,Plated,PTH,ViaDrill
T1C0.300
; #@! TA.AperFunction,Plated,PTH,ComponentDrill
T2C0.600
; #@! TA.AperFunction,Plated,PTH,ComponentDrill
T3C0.800
; #@! TA.AperFunction,Plated,PTH,ComponentDrill
T4C0.813
; #@! TA.AperFunction,Plated,PTH,ComponentDrill
T5C0.850
; #@! TA.AperFunction,Plated,PTH,ComponentDrill
T6C0.900
; #@! TA.AperFunction,Plated,PTH,ComponentDrill
T7C1.000
; #@! TA.AperFunction,Plated,PTH,ComponentDrill
T8C1.500
%
G90
G05
T1
X51.308Y-111.76
X51.308Y-132.588
X51.562Y-60.706
X52.07Y-157.734
X52.451Y-87.63
X52.959Y-91.44
X53.086Y-68.326
X53.34Y-114.3
X55.372Y-76.2
X55.372Y-94.996
X55.494Y-96.608
X55.753Y-104.14
X56.261Y-111.633
X56.388Y-78.74
X56.388Y-97.79
X56.896Y-129.159
X57.023Y-117.856
X57.023Y-123.825
X57.15Y-101.6
X57.404Y-107.442
X57.658Y-81.28
X57.658Y-99.06
X58.42Y-62.992
X58.674Y-83.82
X58.928Y-99.06
X59.69Y-87.376
X60.96Y-91.186
X62.992Y-102.87
X63.119Y-106.68
X63.373Y-123.19
X63.5Y-128.524
X63.754Y-115.443
X63.816Y-100.33
X64.008Y-157.734
X64.516Y-101.6
X65.024Y-57.658
X65.469Y-66.993
X68.072Y-99.06
X68.12Y-76.2
X68.58Y-117.094
X68.834Y-78.74
X68.834Y-119.38
X69.088Y-115.316
X69.596Y-81.28
X69.596Y-139.954
X69.596Y-153.162
X69.723Y-100.076
X69.85Y-123.952
X70.104Y-130.048
X70.358Y-83.82
X70.866Y-96.52
X71.882Y-91.186
X72.644Y-61.976
X73.533Y-134.493
X75.819Y-143.637
X75.946Y-125.984
X76.2Y-118.11
X76.454Y-95.25
X76.454Y-132.588
X76.962Y-93.726
X76.962Y-101.6
X76.962Y-110.49
X78.359Y-148.209
X78.74Y-91.186
X79.756Y-57.912
X80.01Y-138.938
X80.01Y-143.764
X80.899Y-99.822
X81.026Y-133.223
X81.28Y-111.887
X82.169Y-108.585
X82.423Y-94.107
X83.312Y-128.016
X84.709Y-124.587
X87.122Y-61.722
X87.376Y-91.186
X88.138Y-156.972
X89.154Y-92.202
X89.154Y-122.174
X89.154Y-124.46
X89.154Y-127.508
X89.662Y-115.062
X90.297Y-133.731
X91.186Y-110.998
X91.694Y-91.186
X92.71Y-102.87
X93.149Y-105.341
X93.218Y-68.326
X94.049Y-97.859
X94.107Y-144.78
X94.107Y-148.844
X94.107Y-151.638
X94.742Y-62.484
X95.377Y-89.154
X95.504Y-125.984
X96.774Y-101.6
X97.028Y-107.188
X97.028Y-114.3
X98.552Y-125.73
X98.806Y-136.144
X99.06Y-119.38
X99.314Y-142.748
X100.33Y-114.3
X100.584Y-86.106
X101.6Y-104.14
X101.6Y-126.746
X102.362Y-51.562
X102.87Y-61.976
X103.124Y-157.226
X103.378Y-74.422
X103.632Y-83.82
X104.013Y-151.511
X107.315Y-144.399
X107.696Y-120.904
X107.696Y-138.938
X107.95Y-127.254
X108.458Y-94.996
X109.728Y-99.06
X109.728Y-101.6
X110.49Y-148.336
X113.03Y-58.801
X113.284Y-111.379
X113.538Y-150.876
X114.808Y-81.407
X115.062Y-74.422
X115.57Y-51.562
X116.078Y-147.066
X116.586Y-132.842
X117.348Y-61.722
X118.364Y-157.226
X120.965Y-130.468
X121.92Y-105.918
X121.92Y-110.998
X121.92Y-128.016
X121.92Y-131.318
X121.92Y-132.588
X121.92Y-133.604
X121.92Y-145.288
X121.92Y-149.86
X122.174Y-54.61
X122.174Y-58.928
X122.174Y-76.962
X122.174Y-83.058
X122.174Y-101.854
X131.318Y-51.308
X131.826Y-155.956
X131.826Y-158.75
X133.281Y-146.558
X135.821Y-145.796
X138.361Y-145.034
X145.034Y-51.308
X147.32Y-148.59
X147.32Y-151.13
X148.59Y-126.746
X149.86Y-76.708
X149.86Y-79.756
X149.86Y-83.058
X149.86Y-101.854
X149.86Y-106.426
X149.86Y-110.744
X149.86Y-131.064
X149.86Y-135.382
X150.114Y-55.118
X150.114Y-58.928
X155.702Y-155.956
X155.702Y-158.75
X158.681Y-144.272
X160.528Y-51.308
X161.221Y-146.558
X163.83Y-145.796
X166.301Y-145.034
X173.482Y-51.308
X175.26Y-148.59
X175.26Y-152.654
X176.53Y-126.492
X177.8Y-55.626
X177.8Y-59.436
X177.8Y-76.708
X177.8Y-80.264
X177.8Y-83.312
X177.8Y-101.6
X177.8Y-106.172
X177.8Y-111.252
X178.054Y-131.572
X178.054Y-135.636
X186.69Y-144.272
X187.198Y-51.308
X189.23Y-146.558
X191.701Y-145.796
X192.024Y-155.702
X192.024Y-159.004
X194.241Y-145.034
X201.93Y-51.562
X203.708Y-155.702
X204.216Y-126.492
X205.232Y-148.59
X205.232Y-151.13
X205.74Y-76.708
X205.74Y-81.026
X205.74Y-101.854
X205.74Y-105.918
X205.994Y-55.626
X205.994Y-133.604
X212.09Y-158.496
X214.63Y-144.272
X215.9Y-51.308
X217.101Y-146.558
X219.641Y-145.796
X222.25Y-145.034
X228.092Y-158.242
X228.346Y-51.562
X228.346Y-65.532
X228.6Y-77.47
X228.6Y-93.726
X228.6Y-111.252
X228.6Y-127.254
X228.6Y-144.526
T3
X53.34Y-58.42
X53.34Y-66.04
X53.34Y-71.12
X53.34Y-73.66
X53.34Y-76.2
X53.34Y-78.74
X53.34Y-81.28
X53.34Y-83.82
X53.34Y-86.36
X53.34Y-88.9
X53.34Y-93.98
X53.34Y-96.52
X53.34Y-99.06
X53.34Y-101.6
X53.34Y-104.14
X53.34Y-106.68
X53.34Y-109.22
X53.34Y-111.76
X53.34Y-116.84
X53.34Y-119.38
X53.34Y-121.92
X53.34Y-124.46
X53.34Y-127.0
X53.34Y-129.54
X53.34Y-132.08
X56.34Y-58.42
X56.34Y-66.04
X59.34Y-58.42
X59.34Y-66.04
X60.96Y-71.12
X60.96Y-73.66
X60.96Y-76.2
X60.96Y-78.74
X60.96Y-81.28
X60.96Y-83.82
X60.96Y-86.36
X60.96Y-88.9
X60.96Y-93.98
X60.96Y-96.52
X60.96Y-99.06
X60.96Y-101.6
X60.96Y-104.14
X60.96Y-106.68
X60.96Y-109.22
X60.96Y-111.76
X60.96Y-116.84
X60.96Y-119.38
X60.96Y-121.92
X60.96Y-124.46
X60.96Y-127.0
X60.96Y-129.54
X60.96Y-132.08
X62.34Y-58.42
X62.34Y-66.04
X66.04Y-71.12
X66.04Y-73.66
X66.04Y-76.2
X66.04Y-78.74
X66.04Y-81.28
X66.04Y-83.82
X66.04Y-86.36
X66.04Y-88.9
X66.04Y-93.98
X66.04Y-96.52
X66.04Y-99.06
X66.04Y-101.6
X66.04Y-104.14
X66.04Y-106.68
X66.04Y-109.22
X66.04Y-111.76
X66.04Y-116.84
X66.04Y-119.38
X66.04Y-121.92
X66.04Y-124.46
X66.04Y-127.0
X66.04Y-129.54
X66.04Y-132.08
X66.04Y-137.16
X66.04Y-140.16
X66.04Y-143.16
X66.04Y-149.86
X66.04Y-152.86
X66.04Y-155.86
X68.12Y-58.42
X68.12Y-66.04
X71.12Y-58.42
X71.12Y-66.04
X73.66Y-71.12
X73.66Y-73.66
X73.66Y-76.2
X73.66Y-78.74
X73.66Y-81.28
X73.66Y-83.82
X73.66Y-86.36
X73.66Y-88.9
X73.66Y-93.98
X73.66Y-96.52
X73.66Y-99.06
X73.66Y-101.6
X73.66Y-104.14
X73.66Y-106.68
X73.66Y-109.22
X73.66Y-111.76
X73.66Y-116.84
X73.66Y-119.38
X73.66Y-121.92
X73.66Y-124.46
X73.66Y-127.0
X73.66Y-129.54
X73.66Y-132.08
X73.66Y-137.16
X73.66Y-140.16
X73.66Y-143.16
X73.66Y-149.86
X73.66Y-152.86
X73.66Y-155.86
X74.12Y-58.42
X74.12Y-66.04
X77.12Y-58.42
X77.12Y-66.04
X78.74Y-71.12
X78.74Y-73.66
X78.74Y-76.2
X78.74Y-78.74
X78.74Y-81.28
X78.74Y-83.82
X78.74Y-86.36
X78.74Y-88.9
X78.74Y-93.98
X78.74Y-96.52
X78.74Y-99.06
X78.74Y-101.6
X78.74Y-104.14
X78.74Y-106.68
X78.74Y-109.22
X78.74Y-111.76
X78.74Y-116.84
X78.74Y-119.38
X78.74Y-121.92
X78.74Y-124.46
X78.74Y-127.0
X78.74Y-129.54
X78.74Y-132.08
X82.44Y-58.42
X82.44Y-66.04
X82.742Y-138.749
X82.742Y-141.249
X85.44Y-58.42
X85.44Y-66.04
X86.36Y-71.12
X86.36Y-73.66
X86.36Y-76.2
X86.36Y-78.74
X86.36Y-81.28
X86.36Y-83.82
X86.36Y-86.36
X86.36Y-88.9
X86.36Y-93.98
X86.36Y-96.52
X86.36Y-99.06
X86.36Y-101.6
X86.36Y-104.14
X86.36Y-106.68
X86.36Y-109.22
X86.36Y-111.76
X86.36Y-116.84
X86.36Y-119.38
X86.36Y-121.92
X86.36Y-124.46
X86.36Y-127.0
X86.36Y-129.54
X86.36Y-132.08
X88.44Y-58.42
X88.44Y-66.04
X88.742Y-138.749
X88.742Y-141.249
X91.44Y-58.42
X91.44Y-66.04
X91.44Y-71.12
X91.44Y-73.66
X91.44Y-76.2
X91.44Y-78.74
X91.44Y-81.28
X91.44Y-83.82
X91.44Y-86.36
X91.44Y-88.9
X91.44Y-93.98
X91.44Y-96.52
X91.44Y-99.06
X91.44Y-101.6
X91.44Y-104.14
X91.44Y-106.68
X91.44Y-109.22
X92.456Y-145.542
X92.456Y-153.162
X93.758Y-157.23
X94.742Y-138.749
X94.742Y-141.249
X95.14Y-58.42
X95.14Y-66.04
X95.758Y-145.542
X95.758Y-153.162
X95.758Y-157.23
X97.758Y-157.23
X98.14Y-58.42
X98.14Y-66.04
X99.06Y-71.12
X99.06Y-73.66
X99.06Y-76.2
X99.06Y-78.74
X99.06Y-81.28
X99.06Y-83.82
X99.06Y-86.36
X99.06Y-88.9
X99.06Y-93.98
X99.06Y-96.52
X99.06Y-99.06
X99.06Y-101.6
X99.06Y-104.14
X99.06Y-106.68
X99.06Y-109.22
X99.06Y-145.542
X99.06Y-153.162
X101.14Y-58.42
X101.14Y-66.04
X102.362Y-145.542
X102.362Y-153.162
X104.14Y-58.42
X104.14Y-66.04
X104.14Y-71.12
X104.14Y-78.74
X104.14Y-86.36
X104.14Y-88.9
X104.14Y-91.44
X104.14Y-93.98
X104.14Y-96.52
X104.14Y-99.06
X104.14Y-101.6
X104.14Y-104.14
X104.14Y-106.68
X104.14Y-109.22
X104.14Y-111.76
X104.14Y-114.3
X104.14Y-119.38
X104.14Y-121.92
X104.14Y-124.46
X104.14Y-127.0
X104.14Y-129.54
X104.14Y-132.08
X104.14Y-134.62
X104.14Y-137.16
X104.14Y-139.7
X104.14Y-142.24
X105.664Y-145.542
X105.664Y-153.162
X106.68Y-71.12
X106.68Y-78.74
X108.998Y-157.23
X109.22Y-71.12
X109.22Y-78.74
X110.998Y-157.23
X111.76Y-71.12
X111.76Y-78.74
X111.76Y-86.36
X111.76Y-88.9
X111.76Y-91.44
X111.76Y-93.98
X111.76Y-96.52
X111.76Y-99.06
X111.76Y-101.6
X111.76Y-104.14
X111.76Y-106.68
X111.76Y-109.22
X111.76Y-111.76
X111.76Y-114.3
X111.76Y-119.38
X111.76Y-121.92
X111.76Y-124.46
X111.76Y-127.0
X111.76Y-129.54
X111.76Y-132.08
X111.76Y-134.62
X111.76Y-137.16
X111.76Y-139.7
X111.76Y-142.24
X112.998Y-157.23
X119.38Y-53.34
X119.38Y-60.96
X119.38Y-78.74
X119.38Y-86.36
X119.38Y-104.14
X119.38Y-111.76
X119.38Y-129.54
X119.38Y-137.16
X122.12Y-154.02
X124.46Y-53.34
X124.46Y-60.96
X124.46Y-64.77
X124.46Y-72.39
X124.46Y-78.74
X124.46Y-86.36
X124.46Y-90.17
X124.46Y-97.79
X124.46Y-104.14
X124.46Y-111.76
X124.46Y-115.57
X124.46Y-123.19
X124.46Y-129.54
X124.46Y-137.16
X124.46Y-140.97
X124.46Y-148.59
X127.0Y-53.34
X127.0Y-60.96
X127.0Y-64.77
X127.0Y-72.39
X127.0Y-78.74
X127.0Y-86.36
X127.0Y-90.17
X127.0Y-97.79
X127.0Y-104.14
X127.0Y-111.76
X127.0Y-115.57
X127.0Y-123.19
X127.0Y-129.54
X127.0Y-137.16
X127.0Y-140.97
X127.0Y-148.59
X129.54Y-53.34
X129.54Y-60.96
X129.54Y-64.77
X129.54Y-72.39
X129.54Y-78.74
X129.54Y-86.36
X129.54Y-90.17
X129.54Y-97.79
X129.54Y-104.14
X129.54Y-111.76
X129.54Y-115.57
X129.54Y-123.19
X129.54Y-129.54
X129.54Y-137.16
X129.54Y-140.97
X129.54Y-148.59
X129.74Y-154.02
X132.08Y-53.34
X132.08Y-60.96
X132.08Y-64.77
X132.08Y-72.39
X132.08Y-78.74
X132.08Y-86.36
X132.08Y-90.17
X132.08Y-97.79
X132.08Y-104.14
X132.08Y-111.76
X132.08Y-115.57
X132.08Y-123.19
X132.08Y-129.54
X132.08Y-137.16
X132.08Y-140.97
X132.08Y-148.59
X134.12Y-154.02
X134.62Y-53.34
X134.62Y-60.96
X134.62Y-64.77
X134.62Y-72.39
X134.62Y-78.74
X134.62Y-86.36
X134.62Y-90.17
X134.62Y-97.79
X134.62Y-104.14
X134.62Y-111.76
X134.62Y-115.57
X134.62Y-123.19
X134.62Y-129.54
X134.62Y-137.16
X134.62Y-140.97
X134.62Y-148.59
X137.16Y-53.34
X137.16Y-60.96
X137.16Y-64.77
X137.16Y-72.39
X137.16Y-78.74
X137.16Y-86.36
X137.16Y-90.17
X137.16Y-97.79
X137.16Y-104.14
X137.16Y-111.76
X137.16Y-115.57
X137.16Y-123.19
X137.16Y-129.54
X137.16Y-137.16
X137.16Y-140.97
X137.16Y-148.59
X139.7Y-53.34
X139.7Y-60.96
X139.7Y-64.77
X139.7Y-72.39
X139.7Y-78.74
X139.7Y-86.36
X139.7Y-90.17
X139.7Y-97.79
X139.7Y-104.14
X139.7Y-111.76
X139.7Y-115.57
X139.7Y-123.19
X139.7Y-129.54
X139.7Y-137.16
X139.7Y-140.97
X139.7Y-148.59
X141.74Y-154.02
X142.24Y-53.34
X142.24Y-60.96
X142.24Y-64.77
X142.24Y-72.39
X142.24Y-78.74
X142.24Y-86.36
X142.24Y-90.17
X142.24Y-97.79
X142.24Y-104.14
X142.24Y-111.76
X142.24Y-115.57
X142.24Y-123.19
X142.24Y-129.54
X142.24Y-137.16
X142.24Y-140.97
X142.24Y-148.59
X146.12Y-154.02
X147.32Y-53.34
X147.32Y-60.96
X147.32Y-78.74
X147.32Y-86.36
X147.32Y-104.14
X147.32Y-111.76
X147.32Y-129.54
X147.32Y-137.16
X152.4Y-53.34
X152.4Y-60.96
X152.4Y-64.77
X152.4Y-72.39
X152.4Y-78.74
X152.4Y-86.36
X152.4Y-90.17
X152.4Y-97.79
X152.4Y-104.14
X152.4Y-111.76
X152.4Y-115.57
X152.4Y-123.19
X152.4Y-129.54
X152.4Y-137.16
X152.4Y-140.97
X152.4Y-148.59
X153.74Y-154.02
X154.94Y-53.34
X154.94Y-60.96
X154.94Y-64.77
X154.94Y-72.39
X154.94Y-78.74
X154.94Y-86.36
X154.94Y-90.17
X154.94Y-97.79
X154.94Y-104.14
X154.94Y-111.76
X154.94Y-115.57
X154.94Y-123.19
X154.94Y-129.54
X154.94Y-137.16
X154.94Y-140.97
X154.94Y-148.59
X157.48Y-53.34
X157.48Y-60.96
X157.48Y-64.77
X157.48Y-72.39
X157.48Y-78.74
X157.48Y-86.36
X157.48Y-90.17
X157.48Y-97.79
X157.48Y-104.14
X157.48Y-111.76
X157.48Y-115.57
X157.48Y-123.19
X157.48Y-129.54
X157.48Y-137.16
X157.48Y-140.97
X157.48Y-148.59
X158.12Y-154.02
X160.02Y-53.34
X160.02Y-60.96
X160.02Y-64.77
X160.02Y-72.39
X160.02Y-78.74
X160.02Y-86.36
X160.02Y-90.17
X160.02Y-97.79
X160.02Y-104.14
X160.02Y-111.76
X160.02Y-115.57
X160.02Y-123.19
X160.02Y-129.54
X160.02Y-137.16
X160.02Y-140.97
X160.02Y-148.59
X162.56Y-53.34
X162.56Y-60.96
X162.56Y-64.77
X162.56Y-72.39
X162.56Y-78.74
X162.56Y-86.36
X162.56Y-90.17
X162.56Y-97.79
X162.56Y-104.14
X162.56Y-111.76
X162.56Y-115.57
X162.56Y-123.19
X162.56Y-129.54
X162.56Y-137.16
X162.56Y-140.97
X162.56Y-148.59
X165.1Y-53.34
X165.1Y-60.96
X165.1Y-64.77
X165.1Y-72.39
X165.1Y-78.74
X165.1Y-86.36
X165.1Y-90.17
X165.1Y-97.79
X165.1Y-104.14
X165.1Y-111.76
X165.1Y-115.57
X165.1Y-123.19
X165.1Y-129.54
X165.1Y-137.16
X165.1Y-140.97
X165.1Y-148.59
X165.74Y-154.02
X167.64Y-53.34
X167.64Y-60.96
X167.64Y-64.77
X167.64Y-72.39
X167.64Y-78.74
X167.64Y-86.36
X167.64Y-90.17
X167.64Y-97.79
X167.64Y-104.14
X167.64Y-111.76
X167.64Y-115.57
X167.64Y-123.19
X167.64Y-129.54
X167.64Y-137.16
X167.64Y-140.97
X167.64Y-148.59
X170.12Y-154.02
X170.18Y-53.34
X170.18Y-60.96
X170.18Y-64.77
X170.18Y-72.39
X170.18Y-78.74
X170.18Y-86.36
X170.18Y-90.17
X170.18Y-97.79
X170.18Y-104.14
X170.18Y-111.76
X170.18Y-115.57
X170.18Y-123.19
X170.18Y-129.54
X170.18Y-137.16
X170.18Y-140.97
X170.18Y-148.59
X175.26Y-53.34
X175.26Y-60.96
X175.26Y-78.74
X175.26Y-86.36
X175.26Y-104.14
X175.26Y-111.76
X175.26Y-129.54
X175.26Y-137.16
X177.74Y-154.02
X180.34Y-53.34
X180.34Y-60.96
X180.34Y-64.77
X180.34Y-72.39
X180.34Y-78.74
X180.34Y-86.36
X180.34Y-90.17
X180.34Y-97.79
X180.34Y-104.14
X180.34Y-111.76
X180.34Y-115.57
X180.34Y-123.19
X180.34Y-129.54
X180.34Y-137.16
X180.34Y-140.97
X180.34Y-148.59
X182.12Y-154.02
X182.88Y-53.34
X182.88Y-60.96
X182.88Y-64.77
X182.88Y-72.39
X182.88Y-78.74
X182.88Y-86.36
X182.88Y-90.17
X182.88Y-97.79
X182.88Y-104.14
X182.88Y-111.76
X182.88Y-115.57
X182.88Y-123.19
X182.88Y-129.54
X182.88Y-137.16
X182.88Y-140.97
X182.88Y-148.59
X185.42Y-53.34
X185.42Y-60.96
X185.42Y-64.77
X185.42Y-72.39
X185.42Y-78.74
X185.42Y-86.36
X185.42Y-90.17
X185.42Y-97.79
X185.42Y-104.14
X185.42Y-111.76
X185.42Y-115.57
X185.42Y-123.19
X185.42Y-129.54
X185.42Y-137.16
X185.42Y-140.97
X185.42Y-148.59
X187.96Y-53.34
X187.96Y-60.96
X187.96Y-64.77
X187.96Y-72.39
X187.96Y-78.74
X187.96Y-86.36
X187.96Y-90.17
X187.96Y-97.79
X187.96Y-104.14
X187.96Y-111.76
X187.96Y-115.57
X187.96Y-123.19
X187.96Y-129.54
X187.96Y-137.16
X187.96Y-140.97
X187.96Y-148.59
X189.74Y-154.02
X190.5Y-53.34
X190.5Y-60.96
X190.5Y-64.77
X190.5Y-72.39
X190.5Y-78.74
X190.5Y-86.36
X190.5Y-90.17
X190.5Y-97.79
X190.5Y-104.14
X190.5Y-111.76
X190.5Y-115.57
X190.5Y-123.19
X190.5Y-129.54
X190.5Y-137.16
X190.5Y-140.97
X190.5Y-148.59
X193.04Y-53.34
X193.04Y-60.96
X193.04Y-64.77
X193.04Y-72.39
X193.04Y-78.74
X193.04Y-86.36
X193.04Y-90.17
X193.04Y-97.79
X193.04Y-104.14
X193.04Y-111.76
X193.04Y-115.57
X193.04Y-123.19
X193.04Y-129.54
X193.04Y-137.16
X193.04Y-140.97
X193.04Y-148.59
X194.12Y-154.02
X195.58Y-53.34
X195.58Y-60.96
X195.58Y-64.77
X195.58Y-72.39
X195.58Y-78.74
X195.58Y-86.36
X195.58Y-90.17
X195.58Y-97.79
X195.58Y-104.14
X195.58Y-111.76
X195.58Y-115.57
X195.58Y-123.19
X195.58Y-129.54
X195.58Y-137.16
X195.58Y-140.97
X195.58Y-148.59
X198.12Y-53.34
X198.12Y-60.96
X198.12Y-64.77
X198.12Y-72.39
X198.12Y-78.74
X198.12Y-86.36
X198.12Y-90.17
X198.12Y-97.79
X198.12Y-104.14
X198.12Y-111.76
X198.12Y-115.57
X198.12Y-123.19
X198.12Y-129.54
X198.12Y-137.16
X198.12Y-140.97
X198.12Y-148.59
X201.74Y-154.02
X203.2Y-53.34
X203.2Y-60.96
X203.2Y-78.74
X203.2Y-86.36
X203.2Y-104.14
X203.2Y-111.76
X203.2Y-129.54
X203.2Y-137.16
X206.12Y-154.02
X208.28Y-53.34
X208.28Y-60.96
X208.28Y-64.77
X208.28Y-72.39
X208.28Y-78.74
X208.28Y-86.36
X208.28Y-90.17
X208.28Y-97.79
X208.28Y-104.14
X208.28Y-111.76
X208.28Y-115.57
X208.28Y-123.19
X208.28Y-129.54
X208.28Y-137.16
X208.28Y-140.97
X208.28Y-148.59
X210.82Y-53.34
X210.82Y-60.96
X210.82Y-64.77
X210.82Y-72.39
X210.82Y-78.74
X210.82Y-86.36
X210.82Y-90.17
X210.82Y-97.79
X210.82Y-104.14
X210.82Y-111.76
X210.82Y-115.57
X210.82Y-123.19
X210.82Y-129.54
X210.82Y-137.16
X210.82Y-140.97
X210.82Y-148.59
X213.36Y-53.34
X213.36Y-60.96
X213.36Y-64.77
X213.36Y-72.39
X213.36Y-78.74
X213.36Y-86.36
X213.36Y-90.17
X213.36Y-97.79
X213.36Y-104.14
X213.36Y-111.76
X213.36Y-115.57
X213.36Y-123.19
X213.36Y-129.54
X213.36Y-137.16
X213.36Y-140.97
X213.36Y-148.59
X213.74Y-154.02
X215.9Y-53.34
X215.9Y-60.96
X215.9Y-64.77
X215.9Y-72.39
X215.9Y-78.74
X215.9Y-86.36
X215.9Y-90.17
X215.9Y-97.79
X215.9Y-104.14
X215.9Y-111.76
X215.9Y-115.57
X215.9Y-123.19
X215.9Y-129.54
X215.9Y-137.16
X215.9Y-140.97
X215.9Y-148.59
X218.44Y-53.34
X218.44Y-60.96
X218.44Y-64.77
X218.44Y-72.39
X218.44Y-78.74
X218.44Y-86.36
X218.44Y-90.17
X218.44Y-97.79
X218.44Y-104.14
X218.44Y-111.76
X218.44Y-115.57
X218.44Y-123.19
X218.44Y-129.54
X218.44Y-137.16
X218.44Y-140.97
X218.44Y-148.59
X220.98Y-53.34
X220.98Y-60.96
X220.98Y-64.77
X220.98Y-72.39
X220.98Y-78.74
X220.98Y-86.36
X220.98Y-90.17
X220.98Y-97.79
X220.98Y-104.14
X220.98Y-111.76
X220.98Y-115.57
X220.98Y-123.19
X220.98Y-129.54
X220.98Y-137.16
X220.98Y-140.97
X220.98Y-148.59
X223.52Y-53.34
X223.52Y-60.96
X223.52Y-64.77
X223.52Y-72.39
X223.52Y-78.74
X223.52Y-86.36
X223.52Y-90.17
X223.52Y-97.79
X223.52Y-104.14
X223.52Y-111.76
X223.52Y-115.57
X223.52Y-123.19
X223.52Y-129.54
X223.52Y-137.16
X223.52Y-140.97
X223.52Y-148.59
X226.06Y-53.34
X226.06Y-60.96
X226.06Y-64.77
X226.06Y-72.39
X226.06Y-78.74
X226.06Y-86.36
X226.06Y-90.17
X226.06Y-97.79
X226.06Y-104.14
X226.06Y-111.76
X226.06Y-115.57
X226.06Y-123.19
X226.06Y-129.54
X226.06Y-137.16
X226.06Y-140.97
X226.06Y-148.59
T4
X53.34Y-137.16
X53.34Y-142.24
X53.34Y-149.86
X53.34Y-154.94
X60.96Y-137.16
X60.96Y-142.24
X60.96Y-149.86
X60.96Y-154.94
T5
X78.8Y-155.836
X83.8Y-155.836
T6
X53.34Y-52.88
X53.34Y-55.42
X56.34Y-52.88
X56.34Y-55.42
X59.34Y-52.88
X59.34Y-55.42
X62.34Y-52.88
X62.34Y-55.42
X68.12Y-52.88
X68.12Y-55.42
X71.12Y-52.88
X71.12Y-55.42
X74.12Y-52.88
X74.12Y-55.42
X77.12Y-52.88
X77.12Y-55.42
X82.44Y-52.88
X82.44Y-55.42
X85.44Y-52.88
X85.44Y-55.42
X88.44Y-52.88
X88.44Y-55.42
X91.44Y-52.88
X91.44Y-55.42
X119.38Y-63.5
X119.38Y-66.04
X119.38Y-88.9
X119.38Y-91.44
X119.38Y-114.3
X119.38Y-116.84
X119.38Y-139.7
X119.38Y-142.24
X147.32Y-63.5
X147.32Y-66.04
X147.32Y-88.9
X147.32Y-91.44
X147.32Y-114.3
X147.32Y-116.84
X147.32Y-139.7
X147.32Y-142.24
X175.26Y-63.5
X175.26Y-66.04
X175.26Y-88.9
X175.26Y-91.44
X175.26Y-114.3
X175.26Y-116.84
X175.26Y-139.7
X175.26Y-142.24
X203.2Y-63.5
X203.2Y-66.04
X203.2Y-88.9
X203.2Y-91.44
X203.2Y-114.3
X203.2Y-116.84
X203.2Y-139.7
X203.2Y-142.24
T7
X80.015Y-146.558
X82.555Y-146.558
T8
X91.658Y-157.23
X99.858Y-157.23
X106.898Y-157.23
X115.098Y-157.23
T2
G00X77.8Y-158.886
M15
G01X77.8Y-158.186
M16
G05
G00X84.8Y-158.186
M15
G01X84.8Y-158.886
M16
G05
M30
