%TF.GenerationSoftware,KiCad,Pcbnew,9.0.5*%
%TF.CreationDate,2025-10-14T21:49:14+01:00*%
%TF.ProjectId,TD4cpu,54443463-7075-42e6-9b69-6361645f7063,rev?*%
%TF.SameCoordinates,Original*%
%TF.FileFunction,Soldermask,Top*%
%TF.FilePolarity,Negative*%
%FSLAX46Y46*%
G04 Gerber Fmt 4.6, Leading zero omitted, Abs format (unit mm)*
G04 Created by KiCad (PCBNEW 9.0.5) date 2025-10-14 21:49:14*
%MOMM*%
%LPD*%
G01*
G04 APERTURE LIST*
G04 Aperture macros list*
%AMRoundRect*
0 Rectangle with rounded corners*
0 $1 Rounding radius*
0 $2 $3 $4 $5 $6 $7 $8 $9 X,Y pos of 4 corners*
0 Add a 4 corners polygon primitive as box body*
4,1,4,$2,$3,$4,$5,$6,$7,$8,$9,$2,$3,0*
0 Add four circle primitives for the rounded corners*
1,1,$1+$1,$2,$3*
1,1,$1+$1,$4,$5*
1,1,$1+$1,$6,$7*
1,1,$1+$1,$8,$9*
0 Add four rect primitives between the rounded corners*
20,1,$1+$1,$2,$3,$4,$5,0*
20,1,$1+$1,$4,$5,$6,$7,0*
20,1,$1+$1,$6,$7,$8,$9,0*
20,1,$1+$1,$8,$9,$2,$3,0*%
G04 Aperture macros list end*
%ADD10RoundRect,0.250000X-0.550000X0.550000X-0.550000X-0.550000X0.550000X-0.550000X0.550000X0.550000X0*%
%ADD11C,1.600000*%
%ADD12R,1.800000X1.800000*%
%ADD13C,1.800000*%
%ADD14O,2.200000X3.500000*%
%ADD15R,1.500000X2.500000*%
%ADD16O,1.500000X2.500000*%
%ADD17RoundRect,0.250000X0.550000X0.550000X-0.550000X0.550000X-0.550000X-0.550000X0.550000X-0.550000X0*%
%ADD18RoundRect,0.250000X0.550000X-0.550000X0.550000X0.550000X-0.550000X0.550000X-0.550000X-0.550000X0*%
%ADD19RoundRect,0.250000X-0.550000X-0.550000X0.550000X-0.550000X0.550000X0.550000X-0.550000X0.550000X0*%
%ADD20C,1.397000*%
%ADD21R,1.700000X1.700000*%
%ADD22C,1.700000*%
%ADD23R,0.400000X1.350000*%
%ADD24O,1.200000X1.900000*%
%ADD25R,1.200000X1.900000*%
%ADD26C,1.450000*%
%ADD27R,1.500000X1.900000*%
G04 APERTURE END LIST*
D10*
%TO.C,D36*%
X208280000Y-53340000D03*
D11*
X208280000Y-60960000D03*
%TD*%
D12*
%TO.C,D142*%
X175260000Y-142240000D03*
D13*
X175260000Y-139700000D03*
%TD*%
D10*
%TO.C,D126*%
X223520000Y-129540000D03*
D11*
X223520000Y-137160000D03*
%TD*%
D10*
%TO.C,D123*%
X182880000Y-129540000D03*
D11*
X182880000Y-137160000D03*
%TD*%
D14*
%TO.C,SW3*%
X91658000Y-157230000D03*
X99858000Y-157230000D03*
D15*
X93758000Y-157230000D03*
D16*
X95758000Y-157230000D03*
X97758000Y-157230000D03*
%TD*%
D10*
%TO.C,D42*%
X129540000Y-78740000D03*
D11*
X129540000Y-86360000D03*
%TD*%
D12*
%TO.C,D145*%
X203200000Y-116840000D03*
D13*
X203200000Y-114300000D03*
%TD*%
D17*
%TO.C,U13*%
X111760000Y-142240000D03*
D11*
X111760000Y-139700000D03*
X111760000Y-137160000D03*
X111760000Y-134620000D03*
X111760000Y-132080000D03*
X111760000Y-129540000D03*
X111760000Y-127000000D03*
X111760000Y-124460000D03*
X111760000Y-121920000D03*
X111760000Y-119380000D03*
X104140000Y-119380000D03*
X104140000Y-121920000D03*
X104140000Y-124460000D03*
X104140000Y-127000000D03*
X104140000Y-129540000D03*
X104140000Y-132080000D03*
X104140000Y-134620000D03*
X104140000Y-137160000D03*
X104140000Y-139700000D03*
X104140000Y-142240000D03*
%TD*%
D17*
%TO.C,U3*%
X86360000Y-132080000D03*
D11*
X86360000Y-129540000D03*
X86360000Y-127000000D03*
X86360000Y-124460000D03*
X86360000Y-121920000D03*
X86360000Y-119380000D03*
X86360000Y-116840000D03*
X78740000Y-116840000D03*
X78740000Y-119380000D03*
X78740000Y-121920000D03*
X78740000Y-124460000D03*
X78740000Y-127000000D03*
X78740000Y-129540000D03*
X78740000Y-132080000D03*
%TD*%
D17*
%TO.C,U7*%
X99060000Y-109220000D03*
D11*
X99060000Y-106680000D03*
X99060000Y-104140000D03*
X99060000Y-101600000D03*
X99060000Y-99060000D03*
X99060000Y-96520000D03*
X99060000Y-93980000D03*
X91440000Y-93980000D03*
X91440000Y-96520000D03*
X91440000Y-99060000D03*
X91440000Y-101600000D03*
X91440000Y-104140000D03*
X91440000Y-106680000D03*
X91440000Y-109220000D03*
%TD*%
D14*
%TO.C,SW4*%
X106898000Y-157230000D03*
X115098000Y-157230000D03*
D15*
X108998000Y-157230000D03*
D16*
X110998000Y-157230000D03*
X112998000Y-157230000D03*
%TD*%
D10*
%TO.C,D62*%
X223520000Y-78740000D03*
D11*
X223520000Y-86360000D03*
%TD*%
D17*
%TO.C,U10*%
X73660000Y-132080000D03*
D11*
X73660000Y-129540000D03*
X73660000Y-127000000D03*
X73660000Y-124460000D03*
X73660000Y-121920000D03*
X73660000Y-119380000D03*
X73660000Y-116840000D03*
X66040000Y-116840000D03*
X66040000Y-119380000D03*
X66040000Y-121920000D03*
X66040000Y-124460000D03*
X66040000Y-127000000D03*
X66040000Y-129540000D03*
X66040000Y-132080000D03*
%TD*%
D10*
%TO.C,D25*%
X187960000Y-53340000D03*
D11*
X187960000Y-60960000D03*
%TD*%
D10*
%TO.C,D40*%
X134620000Y-78740000D03*
D11*
X134620000Y-86360000D03*
%TD*%
%TO.C,R26*%
X194120000Y-154020000D03*
X201740000Y-154020000D03*
%TD*%
D12*
%TO.C,D141*%
X203200000Y-142240000D03*
D13*
X203200000Y-139700000D03*
%TD*%
D10*
%TO.C,D129*%
X215900000Y-129540000D03*
D11*
X215900000Y-137160000D03*
%TD*%
%TO.C,R21*%
X134120000Y-154020000D03*
X141740000Y-154020000D03*
%TD*%
%TO.C,R1*%
X66040000Y-137160000D03*
X73660000Y-137160000D03*
%TD*%
%TO.C,R4*%
X66040000Y-152860000D03*
X73660000Y-152860000D03*
%TD*%
%TO.C,R41*%
X175260000Y-104140000D03*
X175260000Y-111760000D03*
%TD*%
D10*
%TO.C,D17*%
X160020000Y-53340000D03*
D11*
X160020000Y-60960000D03*
%TD*%
D10*
%TO.C,D120*%
X190500000Y-129540000D03*
D11*
X190500000Y-137160000D03*
%TD*%
D10*
%TO.C,D108*%
X124460000Y-129540000D03*
D11*
X124460000Y-137160000D03*
%TD*%
D10*
%TO.C,D72*%
X134620000Y-104140000D03*
D11*
X134620000Y-111760000D03*
%TD*%
D10*
%TO.C,D124*%
X180340000Y-129540000D03*
D11*
X180340000Y-137160000D03*
%TD*%
D10*
%TO.C,D27*%
X182880000Y-53340000D03*
D11*
X182880000Y-60960000D03*
%TD*%
D10*
%TO.C,D60*%
X180340000Y-78740000D03*
D11*
X180340000Y-86360000D03*
%TD*%
D10*
%TO.C,D106*%
X129540000Y-129540000D03*
D11*
X129540000Y-137160000D03*
%TD*%
D10*
%TO.C,D75*%
X127000000Y-104140000D03*
D11*
X127000000Y-111760000D03*
%TD*%
D12*
%TO.C,D4*%
X82440000Y-52880000D03*
D13*
X82440000Y-55420000D03*
%TD*%
D10*
%TO.C,D45*%
X170180000Y-78740000D03*
D11*
X170180000Y-86360000D03*
%TD*%
D18*
%TO.C,SW18*%
X124460000Y-148590000D03*
D11*
X127000000Y-148590000D03*
X129540000Y-148590000D03*
X132080000Y-148590000D03*
X134620000Y-148590000D03*
X137160000Y-148590000D03*
X139700000Y-148590000D03*
X142240000Y-148590000D03*
X142240000Y-140970000D03*
X139700000Y-140970000D03*
X137160000Y-140970000D03*
X134620000Y-140970000D03*
X132080000Y-140970000D03*
X129540000Y-140970000D03*
X127000000Y-140970000D03*
X124460000Y-140970000D03*
%TD*%
D10*
%TO.C,D71*%
X137160000Y-104140000D03*
D11*
X137160000Y-111760000D03*
%TD*%
D10*
%TO.C,D31*%
X220980000Y-53340000D03*
D11*
X220980000Y-60960000D03*
%TD*%
D10*
%TO.C,D119*%
X193040000Y-129540000D03*
D11*
X193040000Y-137160000D03*
%TD*%
D10*
%TO.C,D46*%
X167640000Y-78740000D03*
D11*
X167640000Y-86360000D03*
%TD*%
D18*
%TO.C,SW14*%
X124460000Y-123190000D03*
D11*
X127000000Y-123190000D03*
X129540000Y-123190000D03*
X132080000Y-123190000D03*
X134620000Y-123190000D03*
X137160000Y-123190000D03*
X139700000Y-123190000D03*
X142240000Y-123190000D03*
X142240000Y-115570000D03*
X139700000Y-115570000D03*
X137160000Y-115570000D03*
X134620000Y-115570000D03*
X132080000Y-115570000D03*
X129540000Y-115570000D03*
X127000000Y-115570000D03*
X124460000Y-115570000D03*
%TD*%
%TO.C,R47*%
X119380000Y-78740000D03*
X119380000Y-86360000D03*
%TD*%
%TO.C,R24*%
X170120000Y-154020000D03*
X177740000Y-154020000D03*
%TD*%
D10*
%TO.C,D86*%
X195580000Y-104140000D03*
D11*
X195580000Y-111760000D03*
%TD*%
D10*
%TO.C,D117*%
X198120000Y-129540000D03*
D11*
X198120000Y-137160000D03*
%TD*%
D17*
%TO.C,U2*%
X86360000Y-88900000D03*
D11*
X86360000Y-86360000D03*
X86360000Y-83820000D03*
X86360000Y-81280000D03*
X86360000Y-78740000D03*
X86360000Y-76200000D03*
X86360000Y-73660000D03*
X86360000Y-71120000D03*
X78740000Y-71120000D03*
X78740000Y-73660000D03*
X78740000Y-76200000D03*
X78740000Y-78740000D03*
X78740000Y-81280000D03*
X78740000Y-83820000D03*
X78740000Y-86360000D03*
X78740000Y-88900000D03*
%TD*%
D10*
%TO.C,D121*%
X187960000Y-129540000D03*
D11*
X187960000Y-137160000D03*
%TD*%
D10*
%TO.C,D114*%
X157480000Y-129540000D03*
D11*
X157480000Y-137160000D03*
%TD*%
D10*
%TO.C,D128*%
X218440000Y-129540000D03*
D11*
X218440000Y-137160000D03*
%TD*%
D10*
%TO.C,D113*%
X160020000Y-129540000D03*
D11*
X160020000Y-137160000D03*
%TD*%
D10*
%TO.C,D97*%
X215900000Y-104140000D03*
D11*
X215900000Y-111760000D03*
%TD*%
D10*
%TO.C,D61*%
X226060000Y-78740000D03*
D11*
X226060000Y-86360000D03*
%TD*%
D10*
%TO.C,D8*%
X134620000Y-53340000D03*
D11*
X134620000Y-60960000D03*
%TD*%
D12*
%TO.C,D133*%
X53340000Y-52880000D03*
D13*
X53340000Y-55420000D03*
%TD*%
D10*
%TO.C,D11*%
X127000000Y-53340000D03*
D11*
X127000000Y-60960000D03*
%TD*%
%TO.C,R20*%
X122120000Y-154020000D03*
X129740000Y-154020000D03*
%TD*%
D10*
%TO.C,D96*%
X218440000Y-104140000D03*
D11*
X218440000Y-111760000D03*
%TD*%
D10*
%TO.C,D57*%
X187960000Y-78740000D03*
D11*
X187960000Y-86360000D03*
%TD*%
%TO.C,R19*%
X104140000Y-66040000D03*
X104140000Y-58420000D03*
%TD*%
D18*
%TO.C,SW20*%
X180340000Y-148590000D03*
D11*
X182880000Y-148590000D03*
X185420000Y-148590000D03*
X187960000Y-148590000D03*
X190500000Y-148590000D03*
X193040000Y-148590000D03*
X195580000Y-148590000D03*
X198120000Y-148590000D03*
X198120000Y-140970000D03*
X195580000Y-140970000D03*
X193040000Y-140970000D03*
X190500000Y-140970000D03*
X187960000Y-140970000D03*
X185420000Y-140970000D03*
X182880000Y-140970000D03*
X180340000Y-140970000D03*
%TD*%
D12*
%TO.C,D147*%
X147320000Y-116840000D03*
D13*
X147320000Y-114300000D03*
%TD*%
D12*
%TO.C,D2*%
X88440000Y-52880000D03*
D13*
X88440000Y-55420000D03*
%TD*%
D18*
%TO.C,SW6*%
X124460000Y-72390000D03*
D11*
X127000000Y-72390000D03*
X129540000Y-72390000D03*
X132080000Y-72390000D03*
X134620000Y-72390000D03*
X137160000Y-72390000D03*
X139700000Y-72390000D03*
X142240000Y-72390000D03*
X142240000Y-64770000D03*
X139700000Y-64770000D03*
X137160000Y-64770000D03*
X134620000Y-64770000D03*
X132080000Y-64770000D03*
X129540000Y-64770000D03*
X127000000Y-64770000D03*
X124460000Y-64770000D03*
%TD*%
D10*
%TO.C,D56*%
X190500000Y-78740000D03*
D11*
X190500000Y-86360000D03*
%TD*%
%TO.C,R35*%
X77120000Y-66040000D03*
X77120000Y-58420000D03*
%TD*%
D19*
%TO.C,U12*%
X104140000Y-86360000D03*
D11*
X104140000Y-88900000D03*
X104140000Y-91440000D03*
X104140000Y-93980000D03*
X104140000Y-96520000D03*
X104140000Y-99060000D03*
X104140000Y-101600000D03*
X104140000Y-104140000D03*
X104140000Y-106680000D03*
X104140000Y-109220000D03*
X104140000Y-111760000D03*
X104140000Y-114300000D03*
X111760000Y-114300000D03*
X111760000Y-111760000D03*
X111760000Y-109220000D03*
X111760000Y-106680000D03*
X111760000Y-104140000D03*
X111760000Y-101600000D03*
X111760000Y-99060000D03*
X111760000Y-96520000D03*
X111760000Y-93980000D03*
X111760000Y-91440000D03*
X111760000Y-88900000D03*
X111760000Y-86360000D03*
%TD*%
D10*
%TO.C,D122*%
X185420000Y-129540000D03*
D11*
X185420000Y-137160000D03*
%TD*%
D10*
%TO.C,D102*%
X139700000Y-129540000D03*
D11*
X139700000Y-137160000D03*
%TD*%
%TO.C,R14*%
X88440000Y-66040000D03*
X88440000Y-58420000D03*
%TD*%
D10*
%TO.C,D55*%
X193040000Y-78740000D03*
D11*
X193040000Y-86360000D03*
%TD*%
D12*
%TO.C,D151*%
X147320000Y-91440000D03*
D13*
X147320000Y-88900000D03*
%TD*%
D18*
%TO.C,SW17*%
X208280000Y-123190000D03*
D11*
X210820000Y-123190000D03*
X213360000Y-123190000D03*
X215900000Y-123190000D03*
X218440000Y-123190000D03*
X220980000Y-123190000D03*
X223520000Y-123190000D03*
X226060000Y-123190000D03*
X226060000Y-115570000D03*
X223520000Y-115570000D03*
X220980000Y-115570000D03*
X218440000Y-115570000D03*
X215900000Y-115570000D03*
X213360000Y-115570000D03*
X210820000Y-115570000D03*
X208280000Y-115570000D03*
%TD*%
D10*
%TO.C,D132*%
X208280000Y-129540000D03*
D11*
X208280000Y-137160000D03*
%TD*%
D10*
%TO.C,D20*%
X152400000Y-53340000D03*
D11*
X152400000Y-60960000D03*
%TD*%
D10*
%TO.C,D99*%
X210820000Y-104140000D03*
D11*
X210820000Y-111760000D03*
%TD*%
D10*
%TO.C,D5*%
X142240000Y-53340000D03*
D11*
X142240000Y-60960000D03*
%TD*%
D12*
%TO.C,D143*%
X147320000Y-142240000D03*
D13*
X147320000Y-139700000D03*
%TD*%
D10*
%TO.C,D66*%
X213360000Y-78740000D03*
D11*
X213360000Y-86360000D03*
%TD*%
%TO.C,R42*%
X147320000Y-104140000D03*
X147320000Y-111760000D03*
%TD*%
D10*
%TO.C,D101*%
X142240000Y-129540000D03*
D11*
X142240000Y-137160000D03*
%TD*%
D17*
%TO.C,U8*%
X60960000Y-111760000D03*
D11*
X60960000Y-109220000D03*
X60960000Y-106680000D03*
X60960000Y-104140000D03*
X60960000Y-101600000D03*
X60960000Y-99060000D03*
X60960000Y-96520000D03*
X60960000Y-93980000D03*
X53340000Y-93980000D03*
X53340000Y-96520000D03*
X53340000Y-99060000D03*
X53340000Y-101600000D03*
X53340000Y-104140000D03*
X53340000Y-106680000D03*
X53340000Y-109220000D03*
X53340000Y-111760000D03*
%TD*%
D18*
%TO.C,SW11*%
X152400000Y-97790000D03*
D11*
X154940000Y-97790000D03*
X157480000Y-97790000D03*
X160020000Y-97790000D03*
X162560000Y-97790000D03*
X165100000Y-97790000D03*
X167640000Y-97790000D03*
X170180000Y-97790000D03*
X170180000Y-90170000D03*
X167640000Y-90170000D03*
X165100000Y-90170000D03*
X162560000Y-90170000D03*
X160020000Y-90170000D03*
X157480000Y-90170000D03*
X154940000Y-90170000D03*
X152400000Y-90170000D03*
%TD*%
D20*
%TO.C,SW2*%
X53340000Y-149860000D03*
X60960000Y-149860000D03*
X53340000Y-154940000D03*
X60960000Y-154940000D03*
%TD*%
D17*
%TO.C,U5*%
X99060000Y-88900000D03*
D11*
X99060000Y-86360000D03*
X99060000Y-83820000D03*
X99060000Y-81280000D03*
X99060000Y-78740000D03*
X99060000Y-76200000D03*
X99060000Y-73660000D03*
X99060000Y-71120000D03*
X91440000Y-71120000D03*
X91440000Y-73660000D03*
X91440000Y-76200000D03*
X91440000Y-78740000D03*
X91440000Y-81280000D03*
X91440000Y-83820000D03*
X91440000Y-86360000D03*
X91440000Y-88900000D03*
%TD*%
D10*
%TO.C,D131*%
X210820000Y-129540000D03*
D11*
X210820000Y-137160000D03*
%TD*%
%TO.C,R43*%
X119380000Y-104140000D03*
X119380000Y-111760000D03*
%TD*%
D18*
%TO.C,SW15*%
X152400000Y-123190000D03*
D11*
X154940000Y-123190000D03*
X157480000Y-123190000D03*
X160020000Y-123190000D03*
X162560000Y-123190000D03*
X165100000Y-123190000D03*
X167640000Y-123190000D03*
X170180000Y-123190000D03*
X170180000Y-115570000D03*
X167640000Y-115570000D03*
X165100000Y-115570000D03*
X162560000Y-115570000D03*
X160020000Y-115570000D03*
X157480000Y-115570000D03*
X154940000Y-115570000D03*
X152400000Y-115570000D03*
%TD*%
%TO.C,R33*%
X71120000Y-66040000D03*
X71120000Y-58420000D03*
%TD*%
D12*
%TO.C,D136*%
X62340000Y-52880000D03*
D13*
X62340000Y-55420000D03*
%TD*%
D12*
%TO.C,D153*%
X203200000Y-66040000D03*
D13*
X203200000Y-63500000D03*
%TD*%
D10*
%TO.C,D24*%
X190500000Y-53340000D03*
D11*
X190500000Y-60960000D03*
%TD*%
D18*
%TO.C,SW9*%
X208280000Y-72390000D03*
D11*
X210820000Y-72390000D03*
X213360000Y-72390000D03*
X215900000Y-72390000D03*
X218440000Y-72390000D03*
X220980000Y-72390000D03*
X223520000Y-72390000D03*
X226060000Y-72390000D03*
X226060000Y-64770000D03*
X223520000Y-64770000D03*
X220980000Y-64770000D03*
X218440000Y-64770000D03*
X215900000Y-64770000D03*
X213360000Y-64770000D03*
X210820000Y-64770000D03*
X208280000Y-64770000D03*
%TD*%
%TO.C,R8*%
X99060000Y-153162000D03*
X99060000Y-145542000D03*
%TD*%
D18*
%TO.C,SW16*%
X180340000Y-123190000D03*
D11*
X182880000Y-123190000D03*
X185420000Y-123190000D03*
X187960000Y-123190000D03*
X190500000Y-123190000D03*
X193040000Y-123190000D03*
X195580000Y-123190000D03*
X198120000Y-123190000D03*
X198120000Y-115570000D03*
X195580000Y-115570000D03*
X193040000Y-115570000D03*
X190500000Y-115570000D03*
X187960000Y-115570000D03*
X185420000Y-115570000D03*
X182880000Y-115570000D03*
X180340000Y-115570000D03*
%TD*%
D10*
%TO.C,D70*%
X139700000Y-104140000D03*
D11*
X139700000Y-111760000D03*
%TD*%
D10*
%TO.C,D95*%
X220980000Y-104140000D03*
D11*
X220980000Y-111760000D03*
%TD*%
%TO.C,R17*%
X98140000Y-66040000D03*
X98140000Y-58420000D03*
%TD*%
%TO.C,R12*%
X82440000Y-66040000D03*
X82440000Y-58420000D03*
%TD*%
D10*
%TO.C,C2*%
X82742000Y-138748888D03*
D11*
X82742000Y-141248888D03*
%TD*%
D21*
%TO.C,J2*%
X82555000Y-146558000D03*
D22*
X80015000Y-146558000D03*
%TD*%
D10*
%TO.C,D98*%
X213360000Y-104140000D03*
D11*
X213360000Y-111760000D03*
%TD*%
D12*
%TO.C,D138*%
X71120000Y-52880000D03*
D13*
X71120000Y-55420000D03*
%TD*%
D10*
%TO.C,D6*%
X139700000Y-53340000D03*
D11*
X139700000Y-60960000D03*
%TD*%
D10*
%TO.C,D44*%
X124460000Y-78740000D03*
D11*
X124460000Y-86360000D03*
%TD*%
D17*
%TO.C,U4*%
X73660000Y-88900000D03*
D11*
X73660000Y-86360000D03*
X73660000Y-83820000D03*
X73660000Y-81280000D03*
X73660000Y-78740000D03*
X73660000Y-76200000D03*
X73660000Y-73660000D03*
X73660000Y-71120000D03*
X66040000Y-71120000D03*
X66040000Y-73660000D03*
X66040000Y-76200000D03*
X66040000Y-78740000D03*
X66040000Y-81280000D03*
X66040000Y-83820000D03*
X66040000Y-86360000D03*
X66040000Y-88900000D03*
%TD*%
D10*
%TO.C,D104*%
X134620000Y-129540000D03*
D11*
X134620000Y-137160000D03*
%TD*%
%TO.C,R15*%
X91440000Y-66040000D03*
X91440000Y-58420000D03*
%TD*%
D10*
%TO.C,D63*%
X220980000Y-78740000D03*
D11*
X220980000Y-86360000D03*
%TD*%
D10*
%TO.C,D34*%
X213360000Y-53340000D03*
D11*
X213360000Y-60960000D03*
%TD*%
D12*
%TO.C,D3*%
X85440000Y-52880000D03*
D13*
X85440000Y-55420000D03*
%TD*%
D10*
%TO.C,D52*%
X152400000Y-78740000D03*
D11*
X152400000Y-86360000D03*
%TD*%
D10*
%TO.C,D67*%
X210820000Y-78740000D03*
D11*
X210820000Y-86360000D03*
%TD*%
D12*
%TO.C,D137*%
X68120000Y-52880000D03*
D13*
X68120000Y-55420000D03*
%TD*%
D18*
%TO.C,SW7*%
X152400000Y-72390000D03*
D11*
X154940000Y-72390000D03*
X157480000Y-72390000D03*
X160020000Y-72390000D03*
X162560000Y-72390000D03*
X165100000Y-72390000D03*
X167640000Y-72390000D03*
X170180000Y-72390000D03*
X170180000Y-64770000D03*
X167640000Y-64770000D03*
X165100000Y-64770000D03*
X162560000Y-64770000D03*
X160020000Y-64770000D03*
X157480000Y-64770000D03*
X154940000Y-64770000D03*
X152400000Y-64770000D03*
%TD*%
D10*
%TO.C,D18*%
X157480000Y-53340000D03*
D11*
X157480000Y-60960000D03*
%TD*%
D10*
%TO.C,D33*%
X215900000Y-53340000D03*
D11*
X215900000Y-60960000D03*
%TD*%
D10*
%TO.C,D85*%
X198120000Y-104140000D03*
D11*
X198120000Y-111760000D03*
%TD*%
D12*
%TO.C,D140*%
X77120000Y-52880000D03*
D13*
X77120000Y-55420000D03*
%TD*%
D10*
%TO.C,D48*%
X162560000Y-78740000D03*
D11*
X162560000Y-86360000D03*
%TD*%
D10*
%TO.C,D21*%
X198120000Y-53340000D03*
D11*
X198120000Y-60960000D03*
%TD*%
D10*
%TO.C,D115*%
X154940000Y-129540000D03*
D11*
X154940000Y-137160000D03*
%TD*%
D10*
%TO.C,D127*%
X220980000Y-129540000D03*
D11*
X220980000Y-137160000D03*
%TD*%
%TO.C,R50*%
X147320000Y-53340000D03*
X147320000Y-60960000D03*
%TD*%
%TO.C,R25*%
X182120000Y-154020000D03*
X189740000Y-154020000D03*
%TD*%
D18*
%TO.C,SW8*%
X180340000Y-72390000D03*
D11*
X182880000Y-72390000D03*
X185420000Y-72390000D03*
X187960000Y-72390000D03*
X190500000Y-72390000D03*
X193040000Y-72390000D03*
X195580000Y-72390000D03*
X198120000Y-72390000D03*
X198120000Y-64770000D03*
X195580000Y-64770000D03*
X193040000Y-64770000D03*
X190500000Y-64770000D03*
X187960000Y-64770000D03*
X185420000Y-64770000D03*
X182880000Y-64770000D03*
X180340000Y-64770000D03*
%TD*%
D10*
%TO.C,D81*%
X160020000Y-104140000D03*
D11*
X160020000Y-111760000D03*
%TD*%
D10*
%TO.C,D10*%
X129540000Y-53340000D03*
D11*
X129540000Y-60960000D03*
%TD*%
D17*
%TO.C,U11*%
X86360000Y-111760000D03*
D11*
X86360000Y-109220000D03*
X86360000Y-106680000D03*
X86360000Y-104140000D03*
X86360000Y-101600000D03*
X86360000Y-99060000D03*
X86360000Y-96520000D03*
X86360000Y-93980000D03*
X78740000Y-93980000D03*
X78740000Y-96520000D03*
X78740000Y-99060000D03*
X78740000Y-101600000D03*
X78740000Y-104140000D03*
X78740000Y-106680000D03*
X78740000Y-109220000D03*
X78740000Y-111760000D03*
%TD*%
%TO.C,R36*%
X203200000Y-129540000D03*
X203200000Y-137160000D03*
%TD*%
D10*
%TO.C,D39*%
X137160000Y-78740000D03*
D11*
X137160000Y-86360000D03*
%TD*%
D10*
%TO.C,D116*%
X152400000Y-129540000D03*
D11*
X152400000Y-137160000D03*
%TD*%
D10*
%TO.C,D58*%
X185420000Y-78740000D03*
D11*
X185420000Y-86360000D03*
%TD*%
D10*
%TO.C,D15*%
X165100000Y-53340000D03*
D11*
X165100000Y-60960000D03*
%TD*%
D10*
%TO.C,D38*%
X139700000Y-78740000D03*
D11*
X139700000Y-86360000D03*
%TD*%
D10*
%TO.C,D53*%
X198120000Y-78740000D03*
D11*
X198120000Y-86360000D03*
%TD*%
D10*
%TO.C,D37*%
X142240000Y-78740000D03*
D11*
X142240000Y-86360000D03*
%TD*%
D10*
%TO.C,D47*%
X165100000Y-78740000D03*
D11*
X165100000Y-86360000D03*
%TD*%
D10*
%TO.C,D82*%
X157480000Y-104140000D03*
D11*
X157480000Y-111760000D03*
%TD*%
%TO.C,R6*%
X95758000Y-153162000D03*
X95758000Y-145542000D03*
%TD*%
D10*
%TO.C,D16*%
X162560000Y-53340000D03*
D11*
X162560000Y-60960000D03*
%TD*%
D10*
%TO.C,D68*%
X208280000Y-78740000D03*
D11*
X208280000Y-86360000D03*
%TD*%
D10*
%TO.C,D93*%
X226060000Y-104140000D03*
D11*
X226060000Y-111760000D03*
%TD*%
D12*
%TO.C,D156*%
X119380000Y-66040000D03*
D13*
X119380000Y-63500000D03*
%TD*%
D10*
%TO.C,D35*%
X210820000Y-53340000D03*
D11*
X210820000Y-60960000D03*
%TD*%
D12*
%TO.C,D154*%
X175260000Y-66040000D03*
D13*
X175260000Y-63500000D03*
%TD*%
D11*
%TO.C,R49*%
X175260000Y-53340000D03*
X175260000Y-60960000D03*
%TD*%
D10*
%TO.C,D87*%
X193040000Y-104140000D03*
D11*
X193040000Y-111760000D03*
%TD*%
D10*
%TO.C,C3*%
X94742000Y-138748888D03*
D11*
X94742000Y-141248888D03*
%TD*%
%TO.C,R3*%
X66040000Y-140160000D03*
X73660000Y-140160000D03*
%TD*%
D10*
%TO.C,D51*%
X154940000Y-78740000D03*
D11*
X154940000Y-86360000D03*
%TD*%
D10*
%TO.C,D14*%
X167640000Y-53340000D03*
D11*
X167640000Y-60960000D03*
%TD*%
D10*
%TO.C,D79*%
X165100000Y-104140000D03*
D11*
X165100000Y-111760000D03*
%TD*%
%TO.C,R5*%
X66040000Y-143160000D03*
X73660000Y-143160000D03*
%TD*%
D10*
%TO.C,D12*%
X124460000Y-53340000D03*
D11*
X124460000Y-60960000D03*
%TD*%
%TO.C,R16*%
X95140000Y-66040000D03*
X95140000Y-58420000D03*
%TD*%
D10*
%TO.C,D13*%
X170180000Y-53340000D03*
D11*
X170180000Y-60960000D03*
%TD*%
D10*
%TO.C,D64*%
X218440000Y-78740000D03*
D11*
X218440000Y-86360000D03*
%TD*%
D10*
%TO.C,D76*%
X124460000Y-104140000D03*
D11*
X124460000Y-111760000D03*
%TD*%
D10*
%TO.C,D69*%
X142240000Y-104140000D03*
D11*
X142240000Y-111760000D03*
%TD*%
D12*
%TO.C,D1*%
X91440000Y-52880000D03*
D13*
X91440000Y-55420000D03*
%TD*%
D12*
%TO.C,D155*%
X147320000Y-66040000D03*
D13*
X147320000Y-63500000D03*
%TD*%
D10*
%TO.C,D78*%
X167640000Y-104140000D03*
D11*
X167640000Y-111760000D03*
%TD*%
D10*
%TO.C,D130*%
X213360000Y-129540000D03*
D11*
X213360000Y-137160000D03*
%TD*%
D12*
%TO.C,D149*%
X203200000Y-91440000D03*
D13*
X203200000Y-88900000D03*
%TD*%
D10*
%TO.C,D80*%
X162560000Y-104140000D03*
D11*
X162560000Y-111760000D03*
%TD*%
D12*
%TO.C,D144*%
X119380000Y-142240000D03*
D13*
X119380000Y-139700000D03*
%TD*%
D10*
%TO.C,C1*%
X88742000Y-138748888D03*
D11*
X88742000Y-141248888D03*
%TD*%
D10*
%TO.C,D94*%
X223520000Y-104140000D03*
D11*
X223520000Y-111760000D03*
%TD*%
%TO.C,R28*%
X53340000Y-66040000D03*
X53340000Y-58420000D03*
%TD*%
%TO.C,R11*%
X105664000Y-145542000D03*
X105664000Y-153162000D03*
%TD*%
%TO.C,R9*%
X92456000Y-153162000D03*
X92456000Y-145542000D03*
%TD*%
%TO.C,R30*%
X59340000Y-66040000D03*
X59340000Y-58420000D03*
%TD*%
D18*
%TO.C,SW13*%
X208280000Y-97790000D03*
D11*
X210820000Y-97790000D03*
X213360000Y-97790000D03*
X215900000Y-97790000D03*
X218440000Y-97790000D03*
X220980000Y-97790000D03*
X223520000Y-97790000D03*
X226060000Y-97790000D03*
X226060000Y-90170000D03*
X223520000Y-90170000D03*
X220980000Y-90170000D03*
X218440000Y-90170000D03*
X215900000Y-90170000D03*
X213360000Y-90170000D03*
X210820000Y-90170000D03*
X208280000Y-90170000D03*
%TD*%
D18*
%TO.C,SW21*%
X208280000Y-148590000D03*
D11*
X210820000Y-148590000D03*
X213360000Y-148590000D03*
X215900000Y-148590000D03*
X218440000Y-148590000D03*
X220980000Y-148590000D03*
X223520000Y-148590000D03*
X226060000Y-148590000D03*
X226060000Y-140970000D03*
X223520000Y-140970000D03*
X220980000Y-140970000D03*
X218440000Y-140970000D03*
X215900000Y-140970000D03*
X213360000Y-140970000D03*
X210820000Y-140970000D03*
X208280000Y-140970000D03*
%TD*%
%TO.C,R10*%
X102362000Y-145542000D03*
X102362000Y-153162000D03*
%TD*%
D10*
%TO.C,D89*%
X187960000Y-104140000D03*
D11*
X187960000Y-111760000D03*
%TD*%
%TO.C,R2*%
X66040000Y-155860000D03*
X73660000Y-155860000D03*
%TD*%
%TO.C,R46*%
X147320000Y-78740000D03*
X147320000Y-86360000D03*
%TD*%
%TO.C,R34*%
X74120000Y-66040000D03*
X74120000Y-58420000D03*
%TD*%
D10*
%TO.C,D103*%
X137160000Y-129540000D03*
D11*
X137160000Y-137160000D03*
%TD*%
D17*
%TO.C,U9*%
X73660000Y-111760000D03*
D11*
X73660000Y-109220000D03*
X73660000Y-106680000D03*
X73660000Y-104140000D03*
X73660000Y-101600000D03*
X73660000Y-99060000D03*
X73660000Y-96520000D03*
X73660000Y-93980000D03*
X66040000Y-93980000D03*
X66040000Y-96520000D03*
X66040000Y-99060000D03*
X66040000Y-101600000D03*
X66040000Y-104140000D03*
X66040000Y-106680000D03*
X66040000Y-109220000D03*
X66040000Y-111760000D03*
%TD*%
%TO.C,R51*%
X119380000Y-53340000D03*
X119380000Y-60960000D03*
%TD*%
D17*
%TO.C,U1*%
X60960000Y-88900000D03*
D11*
X60960000Y-86360000D03*
X60960000Y-83820000D03*
X60960000Y-81280000D03*
X60960000Y-78740000D03*
X60960000Y-76200000D03*
X60960000Y-73660000D03*
X60960000Y-71120000D03*
X53340000Y-71120000D03*
X53340000Y-73660000D03*
X53340000Y-76200000D03*
X53340000Y-78740000D03*
X53340000Y-81280000D03*
X53340000Y-83820000D03*
X53340000Y-86360000D03*
X53340000Y-88900000D03*
%TD*%
D10*
%TO.C,D107*%
X127000000Y-129540000D03*
D11*
X127000000Y-137160000D03*
%TD*%
D10*
%TO.C,D7*%
X137160000Y-53340000D03*
D11*
X137160000Y-60960000D03*
%TD*%
D10*
%TO.C,D22*%
X195580000Y-53340000D03*
D11*
X195580000Y-60960000D03*
%TD*%
D10*
%TO.C,D110*%
X167640000Y-129540000D03*
D11*
X167640000Y-137160000D03*
%TD*%
%TO.C,R38*%
X147320000Y-129540000D03*
X147320000Y-137160000D03*
%TD*%
D10*
%TO.C,D41*%
X132080000Y-78740000D03*
D11*
X132080000Y-86360000D03*
%TD*%
%TO.C,R39*%
X119380000Y-129540000D03*
X119380000Y-137160000D03*
%TD*%
D17*
%TO.C,U6*%
X60960000Y-132080000D03*
D11*
X60960000Y-129540000D03*
X60960000Y-127000000D03*
X60960000Y-124460000D03*
X60960000Y-121920000D03*
X60960000Y-119380000D03*
X60960000Y-116840000D03*
X53340000Y-116840000D03*
X53340000Y-119380000D03*
X53340000Y-121920000D03*
X53340000Y-124460000D03*
X53340000Y-127000000D03*
X53340000Y-129540000D03*
X53340000Y-132080000D03*
%TD*%
D10*
%TO.C,D29*%
X226060000Y-53340000D03*
D11*
X226060000Y-60960000D03*
%TD*%
D18*
%TO.C,SW19*%
X152400000Y-148590000D03*
D11*
X154940000Y-148590000D03*
X157480000Y-148590000D03*
X160020000Y-148590000D03*
X162560000Y-148590000D03*
X165100000Y-148590000D03*
X167640000Y-148590000D03*
X170180000Y-148590000D03*
X170180000Y-140970000D03*
X167640000Y-140970000D03*
X165100000Y-140970000D03*
X162560000Y-140970000D03*
X160020000Y-140970000D03*
X157480000Y-140970000D03*
X154940000Y-140970000D03*
X152400000Y-140970000D03*
%TD*%
D12*
%TO.C,D150*%
X175260000Y-91440000D03*
D13*
X175260000Y-88900000D03*
%TD*%
D20*
%TO.C,SW1*%
X53340000Y-137160000D03*
X60960000Y-137160000D03*
X53340000Y-142240000D03*
X60960000Y-142240000D03*
%TD*%
D10*
%TO.C,D77*%
X170180000Y-104140000D03*
D11*
X170180000Y-111760000D03*
%TD*%
D10*
%TO.C,SW5*%
X111760000Y-71120000D03*
D11*
X109220000Y-71120000D03*
X106680000Y-71120000D03*
X104140000Y-71120000D03*
X104140000Y-78740000D03*
X106680000Y-78740000D03*
X109220000Y-78740000D03*
X111760000Y-78740000D03*
%TD*%
%TO.C,R32*%
X68120000Y-66040000D03*
X68120000Y-58420000D03*
%TD*%
%TO.C,R13*%
X85440000Y-66040000D03*
X85440000Y-58420000D03*
%TD*%
D10*
%TO.C,D26*%
X185420000Y-53340000D03*
D11*
X185420000Y-60960000D03*
%TD*%
D10*
%TO.C,D91*%
X182880000Y-104140000D03*
D11*
X182880000Y-111760000D03*
%TD*%
D10*
%TO.C,D43*%
X127000000Y-78740000D03*
D11*
X127000000Y-86360000D03*
%TD*%
%TO.C,R44*%
X203200000Y-78740000D03*
X203200000Y-86360000D03*
%TD*%
D10*
%TO.C,D109*%
X170180000Y-129540000D03*
D11*
X170180000Y-137160000D03*
%TD*%
D10*
%TO.C,D90*%
X185420000Y-104140000D03*
D11*
X185420000Y-111760000D03*
%TD*%
D12*
%TO.C,D134*%
X56340000Y-52880000D03*
D13*
X56340000Y-55420000D03*
%TD*%
D18*
%TO.C,SW10*%
X124460000Y-97790000D03*
D11*
X127000000Y-97790000D03*
X129540000Y-97790000D03*
X132080000Y-97790000D03*
X134620000Y-97790000D03*
X137160000Y-97790000D03*
X139700000Y-97790000D03*
X142240000Y-97790000D03*
X142240000Y-90170000D03*
X139700000Y-90170000D03*
X137160000Y-90170000D03*
X134620000Y-90170000D03*
X132080000Y-90170000D03*
X129540000Y-90170000D03*
X127000000Y-90170000D03*
X124460000Y-90170000D03*
%TD*%
D10*
%TO.C,D9*%
X132080000Y-53340000D03*
D11*
X132080000Y-60960000D03*
%TD*%
D10*
%TO.C,D30*%
X223520000Y-53340000D03*
D11*
X223520000Y-60960000D03*
%TD*%
D10*
%TO.C,D100*%
X208280000Y-104140000D03*
D11*
X208280000Y-111760000D03*
%TD*%
D10*
%TO.C,D88*%
X190500000Y-104140000D03*
D11*
X190500000Y-111760000D03*
%TD*%
D10*
%TO.C,D83*%
X154940000Y-104140000D03*
D11*
X154940000Y-111760000D03*
%TD*%
%TO.C,R18*%
X101140000Y-66040000D03*
X101140000Y-58420000D03*
%TD*%
D12*
%TO.C,D139*%
X74120000Y-52880000D03*
D13*
X74120000Y-55420000D03*
%TD*%
D11*
%TO.C,R40*%
X203200000Y-104140000D03*
X203200000Y-111760000D03*
%TD*%
D10*
%TO.C,D23*%
X193040000Y-53340000D03*
D11*
X193040000Y-60960000D03*
%TD*%
%TO.C,R7*%
X66040000Y-149860000D03*
X73660000Y-149860000D03*
%TD*%
D10*
%TO.C,D118*%
X195580000Y-129540000D03*
D11*
X195580000Y-137160000D03*
%TD*%
D12*
%TO.C,D152*%
X119380000Y-91440000D03*
D13*
X119380000Y-88900000D03*
%TD*%
D10*
%TO.C,D73*%
X132080000Y-104140000D03*
D11*
X132080000Y-111760000D03*
%TD*%
%TO.C,R27*%
X206120000Y-154020000D03*
X213740000Y-154020000D03*
%TD*%
D10*
%TO.C,D49*%
X160020000Y-78740000D03*
D11*
X160020000Y-86360000D03*
%TD*%
%TO.C,R37*%
X175260000Y-129540000D03*
X175260000Y-137160000D03*
%TD*%
D10*
%TO.C,D125*%
X226060000Y-129540000D03*
D11*
X226060000Y-137160000D03*
%TD*%
D10*
%TO.C,D74*%
X129540000Y-104140000D03*
D11*
X129540000Y-111760000D03*
%TD*%
D18*
%TO.C,SW12*%
X180340000Y-97790000D03*
D11*
X182880000Y-97790000D03*
X185420000Y-97790000D03*
X187960000Y-97790000D03*
X190500000Y-97790000D03*
X193040000Y-97790000D03*
X195580000Y-97790000D03*
X198120000Y-97790000D03*
X198120000Y-90170000D03*
X195580000Y-90170000D03*
X193040000Y-90170000D03*
X190500000Y-90170000D03*
X187960000Y-90170000D03*
X185420000Y-90170000D03*
X182880000Y-90170000D03*
X180340000Y-90170000D03*
%TD*%
D10*
%TO.C,D50*%
X157480000Y-78740000D03*
D11*
X157480000Y-86360000D03*
%TD*%
D10*
%TO.C,D111*%
X165100000Y-129540000D03*
D11*
X165100000Y-137160000D03*
%TD*%
%TO.C,R45*%
X175260000Y-78740000D03*
X175260000Y-86360000D03*
%TD*%
D10*
%TO.C,D32*%
X218440000Y-53340000D03*
D11*
X218440000Y-60960000D03*
%TD*%
D10*
%TO.C,D19*%
X154940000Y-53340000D03*
D11*
X154940000Y-60960000D03*
%TD*%
D10*
%TO.C,D84*%
X152400000Y-104140000D03*
D11*
X152400000Y-111760000D03*
%TD*%
%TO.C,R48*%
X203200000Y-53340000D03*
X203200000Y-60960000D03*
%TD*%
D10*
%TO.C,D28*%
X180340000Y-53340000D03*
D11*
X180340000Y-60960000D03*
%TD*%
D10*
%TO.C,D92*%
X180340000Y-104140000D03*
D11*
X180340000Y-111760000D03*
%TD*%
D12*
%TO.C,D146*%
X175260000Y-116840000D03*
D13*
X175260000Y-114300000D03*
%TD*%
D10*
%TO.C,D59*%
X182880000Y-78740000D03*
D11*
X182880000Y-86360000D03*
%TD*%
D12*
%TO.C,D148*%
X119380000Y-116840000D03*
D13*
X119380000Y-114300000D03*
%TD*%
D10*
%TO.C,D65*%
X215900000Y-78740000D03*
D11*
X215900000Y-86360000D03*
%TD*%
D10*
%TO.C,D105*%
X132080000Y-129540000D03*
D11*
X132080000Y-137160000D03*
%TD*%
D10*
%TO.C,D112*%
X162560000Y-129540000D03*
D11*
X162560000Y-137160000D03*
%TD*%
%TO.C,R22*%
X146120000Y-154020000D03*
X153740000Y-154020000D03*
%TD*%
D23*
%TO.C,J1*%
X80000000Y-155836376D03*
X80650000Y-155836376D03*
X81300000Y-155836376D03*
X81950000Y-155836376D03*
X82600000Y-155836376D03*
D24*
X77800000Y-158536376D03*
D25*
X78400000Y-158536376D03*
D26*
X78800000Y-155836376D03*
D27*
X80300000Y-158536376D03*
X82300000Y-158536376D03*
D26*
X83800000Y-155836376D03*
D25*
X84200000Y-158536376D03*
D24*
X84800000Y-158536376D03*
%TD*%
D12*
%TO.C,D135*%
X59340000Y-52880000D03*
D13*
X59340000Y-55420000D03*
%TD*%
D11*
%TO.C,R29*%
X56340000Y-66040000D03*
X56340000Y-58420000D03*
%TD*%
%TO.C,R23*%
X158120000Y-154020000D03*
X165740000Y-154020000D03*
%TD*%
D10*
%TO.C,D54*%
X195580000Y-78740000D03*
D11*
X195580000Y-86360000D03*
%TD*%
%TO.C,R31*%
X62340000Y-66040000D03*
X62340000Y-58420000D03*
%TD*%
M02*
